/* XPM */
static char *result[] = {
/* columns rows colors chars-per-pixel */
"64 64 161 2 ",
"   c #1F1F11",
".  c #211A06",
"X  c #231D0A",
"o  c #281F09",
"O  c #1C241D",
"+  c #1E2117",
"@  c #25200E",
"#  c #2A220A",
"$  c #30270D",
"%  c #33290F",
"&  c #392D0F",
"*  c #3C300F",
"=  c #262313",
"-  c #2A2613",
";  c #2C2B1C",
":  c #2D2A17",
">  c #362B10",
",  c #392E11",
"<  c #322F1C",
"1  c #3E3212",
"2  c #35311D",
"3  c #1C2826",
"4  c #182C33",
"5  c #212822",
"6  c #2A2D21",
"7  c #202B28",
"8  c #29332E",
"9  c #363624",
"0  c #3B3926",
"q  c #363A2F",
"w  c #3C3C2A",
"e  c #313429",
"r  c #21363D",
"t  c #2C3835",
"y  c #343D36",
"u  c #423513",
"i  c #463914",
"p  c #4C3D16",
"a  c #4E3F18",
"s  c #413E27",
"d  c #37423D",
"f  c #3B443D",
"g  c #4F4018",
"h  c #524217",
"j  c #554419",
"k  c #58471A",
"l  c #5C4A1A",
"z  c #624E1C",
"x  c #66521E",
"c  c #6A551D",
"v  c #6E581D",
"b  c #725B1F",
"n  c #40412F",
"m  c #4D482B",
"M  c #474A3B",
"N  c #454737",
"B  c #5B5436",
"V  c #5D5738",
"C  c #5F593B",
"Z  c #665321",
"A  c #685420",
"S  c #6D5821",
"D  c #765F20",
"F  c #615C3E",
"G  c #776022",
"H  c #7B6324",
"J  c #6E6439",
"K  c #243941",
"L  c #283E45",
"P  c #3A4642",
"I  c #31484F",
"U  c #3B4845",
"Y  c #374E54",
"T  c #3D535A",
"R  c #434C46",
"E  c #444F4A",
"W  c #47514C",
"Q  c #4C564A",
"!  c #4E5342",
"~  c #565B49",
"^  c #495653",
"/  c #4C5A57",
"(  c #425252",
")  c #635F40",
"_  c #53625E",
"`  c #606043",
"'  c #69694C",
"]  c #686C56",
"[  c #6E725C",
"{  c #737255",
"}  c #7A7A5C",
"|  c #465D64",
" . c #4B636B",
".. c #4B6165",
"X. c #536464",
"o. c #526669",
"O. c #536D74",
"+. c #5C7275",
"@. c #567179",
"#. c #5A747C",
"$. c #5F787E",
"%. c #65736D",
"&. c #627064",
"*. c #707969",
"=. c #607475",
"-. c #6D7D78",
";. c #836A26",
":. c #876E2A",
">. c #886E2A",
",. c #8A702C",
"<. c #92762D",
"1. c #95792F",
"2. c #957930",
"3. c #9C7F32",
"4. c #877B48",
"5. c #71837D",
"6. c #A18334",
"7. c #88845D",
"8. c #928755",
"9. c #8E8E6B",
"0. c #878867",
"q. c #9B9261",
"w. c #979A77",
"e. c #959773",
"r. c #A69E6D",
"t. c #5D7981",
"y. c #637D84",
"u. c #66828B",
"i. c #6A858D",
"p. c #6F898E",
"a. c #798C85",
"s. c #7D918D",
"d. c #6B8790",
"f. c #6D8992",
"g. c #738E95",
"h. c #75939D",
"j. c #7A979D",
"k. c #7796A0",
"l. c #7B9AA4",
"z. c #7D9FAA",
"x. c #839D9C",
"c. c #94A18E",
"v. c #8CA39D",
"b. c #91A79F",
"n. c #839FA1",
"m. c #82A3AC",
"M. c #8FACAE",
"N. c #95ABA2",
"B. c #83A5B0",
"V. c #85A8B4",
"C. c #89ACB6",
"Z. c #88ACB8",
"A. c #8DB2BD",
"S. c #A2B9B1",
"D. c #AEC6BE",
"F. c #99BFCB",
"G. c #95B9C5",
"H. c #9FC5D1",
"J. c #A4CAD7",
"K. c #AAD1DE",
"L. c None",
/* pixels */
"L.L.L.L.L.L.L.L.L.L.L.L.L.L.L.L.L.L.L.L.L.L.L.L.L.L.L.L.L.L.L.L.L.L.L.L.L.L.L.L.L.L.L.L.L.L.L.L.L.L.L.L.L.L.L.L.L.L.L.L.L.L.L.L.",
"L.L.L.L.L.L.L.L.L.L.L.L.L.L.L.L.L.L.L.L.L.L.L.L.L.L.L.L.L.L.L.L.L.L.L.L.L.L.L.L.L.L.L.L.L.L.L.L.L.L.L.L.L.L.L.L.L.L.L.L.L.L.L.L.",
"L.L.L.L.L.L.L.. . . . . . . . . L.L.L.L.L.L.L.L.L.L.L.L.L.L.L.L.L.L.L.L.L.L.L.L.L.L.L.L.L.L.L.L.. . o . . . . . . L.L.L.L.L.L.L.",
"L.L.L.L.L.L.. . . . X X X X X . o L.L.L.L.L.L.L.L.L.L.L.L.L.L.L.L.L.L.L.L.L.L.L.L.L.L.L.L.L.L.o . X . . X . . . . . L.L.L.L.L.L.",
"L.L.L.L.L.. . .     O 3 O 3     . . . . o # & & , , > > > > > > > > > > , , > > , % # . . . . . X   3   3 3 3   . . . L.L.L.L.L.",
"L.L.L.L.. . . . 3 4 4 4 4 4 3   . . . . o # % % > , > , > > > > > > > > , > > > % % $ o . . . .   4 4 4 4 4 4   . . . . L.L.L.L.",
"L.L.L.o % & & & ; 4 4 4 4 4 3   # & & & & 1 u i u i u u u p u i i u p u i i u u u i u & & & % # = 3 4 4 4 4 4 ; > & , > o L.L.L.",
"L.L.. # 1 h h a 9 4 4 4 4 4 3 : & p a j a a j h a j a k a a a k a a a j a a j a j j a j a a p , - 7 4 4 4 4 4 9 g h h 1 o X L.L.",
"L.L.$ % p k j j w L I L L L t ; u i j j j j j k j k k k k k a k l k a l l k a a l l k a j j p , < t K I L L L n j j j p > $ L.L.",
". # u a h j j j M ( ( T T T U 9 * p j j j j j k j j j a a a z a k j a k a a l k k a k l j j p u 9 P T T T T T M j j j h a 1 # . ",
". # 1 a a a a a Q O.O. . .O.^ 0 * i p i a p p p p p p p a a p p p p a a i p p p p i a a p p i & 0 ^ O. .O.O.O.! g a a a a u # . ",
". o > 1 1 1 1 u Q =.t.y.t.y.X.w & * u u u u u * u u u u u u u u u u u u u u u u u u u u u * u & w X.t.y.t.$.=.Q 1 u 1 1 , % o . ",
". # & u u u u u ~ y.u.u.u.u.o.n & u u u u u u u u u u u u u u u u u u u u u u u u u u u u u u & s X.u.u.u.y.y.~ u u u u u & # . ",
"# , a l l l l l ~ O.O.O.O.O./ 0 u h l l l l k k l l l l k z z a l l z z z a z z l k l j l l a u w / O.O.@.O.O.~ l z l z l a & $ ",
"% u z b D G D D ` .. .| ....W 0 i z v v ;.v ;.v v ;.;.v b ;.D D D D D D D D D b D b ;.;.;.;.l i 0 ( .... .| ..J b b G G b z u % ",
"& i z D D D G D ' +.#.#.#.#._ m p l ;.;.v ;.b ;.v v ;.b b ;.b D D D D D D D D D ;.v v b v b z a m _ #.#.@.#.+.' G D G D b z i % ",
"% u z D G b G G { i.d.i.d.d.&.B l v D D D b D D D D D D D D D D b b D D D b D D H b D D D D S l B %.i.i.i.d.i.{ G D b D D z u % ",
"& i S :.>.>.>.,.} i.d.d.d.d.%.B x H :.:.>.>.>.,.>.>.>.>.>.>.>.>.<.>.>.>.>.>.>.>.>.>.>.>.>.>.D Z B %.d.d.d.d.i.} ,.>.>.>.>.b i & ",
"% p H 3.3.3.6.3.7.i.d.d.d.d.%.B Z ,.3.6.3.3.6.3.3.3.3.3.3.3.3.3.3.3.3.3.3.3.3.3.3.3.3.3.3.3.:.Z B %.d.d.i.d.i.0.3.6.3.3.3.H p % ",
"> i S :.>.>.:.:.} i.d.d.d.d.%.B l H :.:.>.:.>.>.>.>.>.>.>.>.>.>.>.>.>.>.>.>.>.>.>.>.>.:.:.>.G Z B %.d.d.p.i.i.} :.>.:.:.:.S i > ",
"> 1 j Z x x Z Z ] i.f.i.d.i.%.B l z A A x x x x S x x x x x x x c x x x A A Z Z x z A x Z Z z k B %.d.d.d.d.i.] Z Z Z Z Z j 1 > ",
"1 i l Z x A A A [ g.h.h.h.h.-.B k z A A x x A A A A Z A A A A S c A A A A S A A c S A A A A x k V -.h.g.h.h.g.[ A A A Z Z l i 1 ",
"a k D ,.,.,.,.,.0.m.B.B.z.B.a.C Z H ,.:.,.,.,.,.>.,.,.,.>.>.<.,.,.,.>.>.,.>.,.,.,.>.>.>.,.,.H z C a.B.B.z.B.m.0.,.,.,.,.,.G k p ",
"j Z ,.6.6.6.6.6.e.V.C.Z.Z.Z.s.C A :.6.6.6.6.6.6.6.6.6.6.6.6.6.6.6.6.6.6.6.6.6.6.6.6.6.6.6.6.,.A ) a.Z.Z.Z.Z.V.e.6.6.6.6.6.:.Z j ",
"j Z :.6.6.6.6.6.9.j.l.k.k.l.5.C A ,.6.6.6.6.6.6.6.6.6.6.6.6.6.6.6.6.6.6.6.6.6.6.6.6.6.6.6.6.,.A C 5.k.j.l.j.j.9.6.6.6.6.6.,.Z j ",
"j Z ,.6.6.6.6.6.0.p.f.f.f.f.%.B A ,.6.6.6.6.6.6.6.6.6.6.6.6.6.6.6.6.6.6.6.6.6.6.6.6.6.6.6.6.,.x B %.f.d.f.g.p.7.6.6.6.6.6.,.Z j ",
"j Z :.6.6.6.6.6.9.j.z.z.l.l.5.C A ,.6.6.6.6.6.6.6.6.6.6.6.6.6.6.6.6.6.6.6.6.6.6.6.6.6.6.6.6.,.c C 5.l.z.z.z.l.9.6.6.6.6.6.:.Z j ",
"j Z ,.6.6.6.6.6.w.C.A.A.A.A.s.` A ,.6.6.6.6.6.6.6.6.6.6.6.6.6.6.6.6.6.6.6.6.6.6.6.6.6.6.6.6.,.c ` s.A.A.Z.A.Z.w.6.6.6.6.6.:.Z j ",
"j Z :.6.6.6.6.6.w.A.A.A.A.A.s.` A ,.6.6.6.6.6.6.6.6.6.6.6.6.6.6.6.6.6.6.6.6.6.6.6.6.6.6.6.6.,.x J s.A.A.A.G.Z.w.6.6.6.6.6.:.Z k ",
"j Z :.6.6.6.6.6.w.A.A.A.A.A.s.J A ,.3.6.6.6.6.6.6.6.6.6.6.6.6.6.6.6.6.6.6.6.6.6.6.6.6.6.6.6.,.x ~ s.A.A.A.A.Z.w.6.6.6.6.6.:.Z k ",
"0 m J 4.8.q.q.q.c.A.A.A.A.A.v.*.{ 7.q.q.r.r.r.r.r.r.r.r.r.r.r.r.r.r.r.r.r.r.r.r.r.r.r.q.q.q.7.{ *.v.A.A.A.A.A.c.q.q.q.8.4.J m 0 ",
"8 y Q &.a.b.b.b.M.A.A.A.A.A.C.l.x.b.b.b.b.S.S.D.D.D.D.D.D.D.D.D.D.D.D.D.D.D.D.H.D.D.S.b.b.b.v.v.l.C.A.A.A.A.A.M.v.N.b.a.&.Q d 8 ",
"4 r Y O.y.z.z.z.z.z.m.V.V.V.V.V.V.V.V.V.C.G.J.J.K.K.K.H.G.G.A.G.S.A.G.G.F.K.K.K.J.J.G.Z.V.V.Z.V.V.V.V.V.Z.m.m.m.z.z.l.y. .Y K 4 ",
"4 r Y  .@.t.t.t.t.y.y.k.k.k.k.k.k.h.k.h.l.l.m.A.F.F.H.z.O. . . . . . .@.l.F.F.F.G.Z.n.k.k.h.k.z.h.k.h.k.k.y.t.t.t.t.t.t. .Y K 4 ",
"4 r Y | | | | | | | @.y.y.f.f.d.d.d.d.d.i.f.f.l.z.G.z.u.L 4 4 4 4 4 4 L t.Z.Z.Z.l.y.f.g.y.y.h.y.h.y.y.y.y.t.| | | | | | | Y r 4 ",
"4 r T | | | | |  .| #.y.f.f.f.g.d.d.d.d.d.d.d.h.k.k.l.O.K 4 4 4 4 4 4 L @.l.k.l.h.f.f.y.y.h.y.h.y.h.y.h.y.@.| | | | | | | Y r 4 ",
"4 r I | | | | | | | O.y.y.d.y.y.u.i.u.i.i.i.i.i.d.d.d. .r 4 4 4 4 4 4 r  .d.d.d.y.y.g.y.f.y.y.y.y.h.y.y.y.t.| | | | | | | Y K 4 ",
"O 3 8 y y y y y y y L E W W ^ W W W W W ^  .#.y.d.d.d. .K 4 4 4 4 4 4 K  .d.d.d.y.t.o./ ^ W / W ^ ( W W W f y y q y y y K 8 5 + ",
". X X X X @ @ X X X o - = @ @ @ @ X @ @ = P  .t.d.d.d. .K 4 4 4 4 4 4 K  .d.d.d.t.| P - @ @ @ @ @ @ @ = @ @ X . X X @ X X   . . ",
". . . . o o o o o . o o o o @ o # # # # = 8 P  .d.d.d. .K 4 4 4 4 4 4 K  .d.d.d.o.P e - o # o o @ o o o o @ . o @ o o X . . . . ",
"L.L.. o # $ > $ o . o $ $ % % % % $ > $ $ - ; ^ i.f.d. .K 4 4 4 4 4 4 K  .f.d.d.^ ; - $ % % % # $ > $ > $ o . o % % % o X X L.L.",
"L.L.o # > 1 1 1 % . $ u , u u u 1 1 u 1 , - X R t.u.i.O.T I I I I I I Y O.d.y.y.R @ $ , u u u u u , u u , $ . $ u u u > o o L.L.",
"L.L.$ > u a a a > . > a a a a a g g g g p % X f  .$.i.u.#.#.@.#.@.@.t.t.y.i.y. .L o % i p p a a p a a a p > . , p a a u > > L.L.",
"L.L.> , p j j j u o , a a k k j j j j j a , o y W ..%.=.+.+.+.=.=.=.+.O.+.+...( s o , a z a z a j j j j a , o u a a l p , , L.L.",
"L.L.% 1 p j j j u $ u a j k k j j j j j j 1 $ < 0 f N M M M M M M M M M M M s w 2 % u a k a z a j j j k a u $ u j j j p , > L.L.",
"L.L., , p k k k p , u a j j j j j l k l j p u , 1 * * * 1 1 1 1 u , , u u , & u , u a a z z a z j k k j j u , i l l j a , , L.L.",
"L.L.> , j A A A a , i j k j j j k x v v c z l l l l l k k k l k k k l l k z k z k k z x x x z a k j j k h u & a x x x j , > L.L.",
"L.L.> u l D D D j , u a j j j a z v b D b b b b D D D D D D G G D D D D D b b b D D D D D D c z j j j j h i & k H b D l u , L.L.",
"L.L.> 1 l D D D l & 1 u i i i i p h k z c x Z Z x x x x Z Z Z Z x x Z Z x x Z Z c x x x z k h p i i i i u u % k b b b z u % L.L.",
"L.L.% 1 z D D b k & & & & & > > & 1 1 p k k j j l k k k k k l k k k k k k k k k k j l j p u & * > < > > & % & k b b b z * $ L.L.",
"L.L., 1 l D D D h & u i g g j l l h h c b D D D G S G D G S S D G S S G G D S D D D D D x h h l k j a a p u & k ;.;.b z u , L.L.",
"L.L.% 1 z D D D l & i c c c G :.>.D b ;.1.1.2.2.2.2.2.2.2.2.2.2.2.2.2.2.2.2.2.2.2.2.1.1.>.b D >.>.D c v c p & a b b b z , , L.L.",
"L.L.& 1 l D D D l * h b D D ;.1.1.;.;.<.6.6.6.6.6.6.6.6.6.6.6.6.6.6.6.6.6.6.6.6.6.6.6.6.<.H ;.1.2.>.b b b l u z b G b l u % L.L.",
"L.L.% 1 z b D D x h z b D D :.1.1.;.H <.6.6.6.6.6.6.6.6.6.6.6.6.6.6.6.6.6.6.6.6.6.6.6.6.<.H ;.1.1.;.b ;.b z a z G G G l u % L.L.",
"L.L., 1 l D D D x k z D D D ;.1.1.;.H <.6.6.6.6.6.6.6.6.6.6.6.6.6.6.6.6.6.6.6.6.6.6.6.6.<.;.;.1.2.;.D b b x k x D D D z , , L.L.",
"L.L.> 1 l D D D z k x D D D ;.1.1.;.;.<.6.6.6.6.6.6.6.6.6.6.6.6.6.6.6.6.6.6.6.6.6.6.6.6.<.H ;.3.1.;.D D b x k x D D b l u , L.L.",
"L.L.$ 1 j v v v z h l v v v H ,.,.G b >.1.1.1.1.1.1.2.<.<.1.1.1.2.2.1.1.1.1.1.1.<.2.1.<.:.D G ,.,.G v v c l a z b v b j 1 % L.L.",
"L.L.@ # 1 i i i u * * i i i p j j p p h k l k l k l k l l k l l k l k l k k l k l l l l h i p j k p i i i u & u i i i 1 # # L.L.",
"L.L.. . . . . X . . . . . . . . . . . . . . . . . . . . . . . . X . . . . . . . . . . . . . . . . . . . . . . o . . . . . . L.L.",
"L.L.. @ ; q f R M R R R q @ . . . . . . . . . . . . . . . . . . . . . . . . . . . . . . . . . . . . = 0 R R R R M f y ; X . L.L.",
"L.L.. = d / O.t.y.y.u.y./ ; . L.L.L.L.L.L.L.L.L.L.L.L.L.L.L.L.L.L.L.L.L.L.L.L.L.L.L.L.L.L.L.L.L.L.. ; / y.y.y.y.y.O./ d = . L.L.",
"L.L.L.= P ..t.d.p.p.i.f._ < L.L.L.L.L.L.L.L.L.L.L.L.L.L.L.L.L.L.L.L.L.L.L.L.L.L.L.L.L.L.L.L.L.L.L.L.; _ d.d.p.f.d.#. .P = L.L.L.",
"L.L.L.L.L.L.L.L.L.L.L.L.L.L.L.L.L.L.L.L.L.L.L.L.L.L.L.L.L.L.L.L.L.L.L.L.L.L.L.L.L.L.L.L.L.L.L.L.L.L.L.L.L.L.L.L.L.L.L.L.L.L.L.L.",
"L.L.L.L.L.L.L.L.L.L.L.L.L.L.L.L.L.L.L.L.L.L.L.L.L.L.L.L.L.L.L.L.L.L.L.L.L.L.L.L.L.L.L.L.L.L.L.L.L.L.L.L.L.L.L.L.L.L.L.L.L.L.L.L."
};
