/* XPM */
static char *result[] = {
/* columns rows colors chars-per-pixel */
"64 64 102 2 ",
"   c #0C0C17",
".  c #0B0B18",
"X  c #120E17",
"o  c #140E18",
"O  c #190F19",
"+  c #1E1116",
"@  c #1C101A",
"#  c #251316",
"$  c #291417",
"%  c #23121B",
"&  c #2A141A",
"*  c #35161E",
"=  c #39161E",
"-  c #3C191D",
";  c #3A1720",
":  c #391820",
">  c #461D15",
",  c #4D1F14",
"<  c #451C1D",
"1  c #4B1C1C",
"2  c #541F1D",
"3  c #4E2014",
"4  c #5B2413",
"5  c #55211B",
"6  c #5C221D",
"7  c #66250F",
"8  c #662512",
"9  c #6B2612",
"0  c #6C2913",
"q  c #63251A",
"w  c #722714",
"e  c #742A15",
"r  c #7A2917",
"t  c #742B1A",
"y  c #7C2C1A",
"u  c #441B21",
"i  c #4B1C24",
"p  c #531F23",
"a  c #5D2125",
"s  c #622323",
"d  c #6C2626",
"f  c #6C2820",
"g  c #64242A",
"h  c #6E2629",
"j  c #752921",
"k  c #7C2B26",
"l  c #702728",
"z  c #76282C",
"x  c #7A2B2B",
"c  c #832D1C",
"v  c #8A2E1F",
"b  c #86311F",
"n  c #88311F",
"m  c #842D24",
"M  c #8F2F20",
"N  c #822C2B",
"B  c #8B2E2D",
"V  c #912E20",
"C  c #863121",
"Z  c #8C3221",
"A  c #933325",
"S  c #9B3426",
"D  c #93322A",
"F  c #9C3629",
"G  c #9F382A",
"H  c #953133",
"J  c #9C3331",
"K  c #A5352A",
"L  c #AB372B",
"P  c #A4392E",
"I  c #AC392E",
"U  c #B0372B",
"Y  c #B2392E",
"T  c #A33434",
"R  c #AB3636",
"E  c #AD3B31",
"W  c #B73735",
"Q  c #B53C32",
"!  c #BB3C34",
"~  c #B73A3C",
"^  c #C33E35",
"/  c #C83E37",
"(  c #C53D3A",
")  c #CC3F39",
"_  c #D13F3A",
"`  c #D83F3B",
"'  c #BD4038",
"]  c #C44037",
"[  c #C54239",
"{  c #CC413B",
"}  c #D3413D",
"|  c #D9423E",
" . c #D64441",
".. c #DC4541",
"X. c #E34543",
"o. c #EB4645",
"O. c #E44845",
"+. c #EC4847",
"@. c #E74A48",
"#. c #ED4A49",
"$. c #F04C4B",
"%. c None",
/* pixels */
"%.%.%.%.%.%.%.%.%.%.%.%.%.%.%.%.%.%.%.%.%.%.%.%.%.%.%.%.%.%.%.%.%.%.%.%.%.%.%.%.%.%.%.%.%.%.%.%.%.%.%.%.%.%.%.%.%.%.%.%.%.%.%.%.",
"%.%.%.%.%.%.%.%.%.%.%.%.%.%.%.%.%.%.%.%.%.%.%.%.%.%.%.%.%.%.%.%.%.%.%.%.%.%.%.%.%.%.%.%.%.%.%.%.%.%.%.%.%.%.%.%.%.%.%.%.%.%.%.%.",
"%.%.%.%.%.%.%.%.%.%.%.%.%.%.%.%.%.%.%.%.%.%.%.%.%.%.%.%.%.%.%.%.%.%.%.%.%.%.%.%.%.%.%.%.%.%.%.%.%.%.%.%.%.%.%.%.%.%.%.%.%.%.%.%.",
"%.%.%.%.%.%.%.%.%.%.%.%.%.%.%.%.%.%.%.%.%.%.%.%.%.%.%.%.%.%.%.%.%.%.%.%.%.%.%.%.%.%.%.%.%.%.%.%.%.%.%.%.%.%.%.%.%.%.%.%.%.%.%.%.",
"%.%.%.%.%.%.%.%.%.%.%.%.%.%.%.%.%.%.%.%.%.%.%.%.%.%.%.%.%.%.%.%.%.%.%.%.%.%.%.%.%.%.%.%.%.%.%.%.%.%.%.%.%.%.%.%.%.%.%.%.%.%.%.%.",
"%.%.%.%.%.%.%.%.%.%.%.%.%.%.%.    %.%.%.%.%.%.%.%.%.%.%.%.%.%.%.%.%.%.%.%.%.%.%.%.%.%.%.%.%.%.%.%.%.%.%.%.%.%.%.%.%.%.%.%.%.%.%.",
"%.%.%.%.%.%.%.%.%.%.%.%.%.%.      %.%.%.%.%.%.%.%.%.%.%.%.%.%.%.%.%.%.%.%.%.%.%.%.%.%.%..   %.%.%.%.%.%.%.%.%.%.%.%.%.%.%.%.%.%.",
"%.%.%.%.%.%.%.%.%.%.%.%.%.%.  @     %.%.%.%.%.%.%.%.%.%.%.            %.%.%.%.%.%.%.%.      %.%.%.%.%.%.%.%.%.%.%.%.%.%.%.%.%.%.",
"%.%.%.%.%.%.%.%.%.%.%.%.%.%.  J &   %.%.%.%.%.%.%.%.          .     .       %.%.%.%.%.  & .   %.%.%.%.%.%.%.%.%.%.%.%.%.%.%.%.%.",
"%.%.%.%.%.%.%.%.%.%.%.%.%.    ^ !     %.%.%.%.      X 3 9 9 9 9 9 0 0 0 3         %.    S O   %.%.%.%.%.%.%.%.%.%.%.%.%.%.%.%.%.",
"%.%.%.%.%.%.%.%.%.%.%.%.%.    ^ / B     %.%.    + 9 9 9 9 9 9 9 8 0 0 0 0 0 9 +       * Y s   %.%.%.%.%.%.%.%.%.%.%.%.%.%.%.%.%.",
"%.%.%.%.%.%.%.%.%.%.%.%.%.    ^ { _ B         q 9 0 9 7 8 9 7 9 9 0 9 0 0 0 0 0 3   X ' Q B   %.%.%.%.%.%.%.%.%.%.%.%.%.%.%.%.%.",
"%.%.%.%.%.%.%.%.%.%.%.%.%.%.  J ) _ | ) -   @ 0 e 0 0 0 9 9 9 7 0 0 9 0 0 0 0 #     [ ] ! N   %.%.%.%.%.%.%.%.%.%.%.%.%.%.%.%.%.",
"%.%.%.%.%.%.%.%.%.%.%.%.%.%.  = ) | | ` |   o w 0 w 0 w w 9 9 9 0 e t e e $     * | { { ^ <   %.%.%.%.%.%.%.%.%.%.%.%.%.%.%.%.%.",
"%.%.%.%.%.%.%.%.%.%.%.%.%.%.    | ` | | ..  $ e t t y e e w w 9 0 t e e #   @ ( ......} { o   %.%.%.%.%.%.%.%.%.%.%.%.%.%.%.%.%.",
"%.%.%.%.%.%.%.%.%.%.%.%.%.%.%.  s | | } O   0 y y y y e r w w w w w y e   u #.X.O.O.....R     %.%.%.%.%.%.%.%.%.%.%.%.%.%.%.%.%.",
"%.%.%.%.%.%.%.%.%.%.%.%.%.%.%.    p o     > r y r r r y y r w r e y y y   : $.@.@.@.O. .      %.%.%.%.%.%.%.%.%.%.%.%.%.%.%.%.%.",
"%.%.%.%.%.%.%.%.%.%.%.%.%.%.%.%.    . $ y m c c c y c c c c c y y y y y &   X g ~ ' g     q     %.%.%.%.%.%.%.%.%.%.%.%.%.%.%.%.",
"%.%.%.%.%.%.%.%.%.%.%.%.%.%.%.%.  6 v v v b v c c c c v n v v y y b b b C 5     .   X X y k 5   %.%.%.%.%.%.%.%.%.%.%.%.%.%.%.%.",
"%.%.%.%.%.%.%.%.%.%.%.%.%.%.%.    M v Z M Z Z v c v v v n v v v b b Z C Z C C C f f C C Z C C     %.%.%.%.%.%.%.%.%.%.%.%.%.%.%.",
"%.%.%.%.%.%.%.%.%.%.%.%.%.%.%.    V M A >     o c v V v A Z A M M Z A Z Z Z Z A Z Z Z Z C C Z     %.%.%.%.%.%.%.%.%.%.%.%.%.%.%.",
"%.%.%.%.%.%.%.%.%.%.%.%.%.%.%.  1 A D & . .   .   1 V V A A V Z y $ 3 t Z D A A A A A A A A A <   %.%.%.%.%.%.%.%.%.%.%.%.%.%.%.",
"%.%.%.%.%.%.%.%.%.%.%.%.%.%.%.  t S Z               A V S A A O . . . .   f A G A A G Z A A A j   %.%.%.%.%.%.%.%.%.%.%.%.%.%.%.",
"%.%.%.%.%.%.%.%.%.%.%.%.%.%.%.  D S j               q S K S X   . . . .     C A G G G G F F F Z   %.%.%.%.%.%.%.%.%.%.%.%.%.%.%.",
"%.%.%.%.%.%.%.%.%.%.%.%.%.%.%.  K K S .             s S P D .   . .         X G A A F A G G G F   %.%.%.%.%.%.%.%.%.%.%.%.%.%.%.",
"%.%.%.%.%.%.%.%.%.%.%.%.%.%.%.  K L L d             K K L k                   P ' G ' A A ' P A   %.%.%.%.%.%.%.%.%.%.%.%.%.%.%.",
"%.%.%.%.%.%.%.%.%.%.%.%.%.%.%.  m U U U I 5 % % 2 L L L L K             . . O ' ' G ' I ' G G j   %.%.%.%.%.%.%.%.%.%.%.%.%.%.%.",
"%.%.%.%.%.%.%.%.%.%.%.%.%.%.%.  p W Y W Y Y Y Y Y U U U Y U <           . . Z ' P ' P I G ' ' 3   %.%.%.%.%.%.%.%.%.%.%.%.%.%.%.",
"%.%.%.%.%.%.%.%.%.%.%.%.%.%.%.  X ! W ! ! ! ! ! W W U U ! ! W d           G ' I Q ' I I I ' Q     %.%.%.%.%.%.%.%.%.%.%.%.%.%.%.",
"%.%.%.%.%.%.%.%.%.%.%.%.%.%.%.    ^ ! ^ ^ ! ! ! ! ! ^ U ^ ! ! ! ! ! ! Q ' ' ' ' ! ' ' ' ' ' !     %.%.%.%.%.%.%.%.%.%.%.%.%.%.%.",
"%.%.%.%.%.%.%.%.%.%.%.%.%.%.%.%.  x ^ ] ^ ^ ^ ^ ] ^ ^ ^ ^ L p ^ ^ ] ^ ! ' ' Y ' ! ' ! ! Y ' x   %.%.%.%.%.%.%.%.%.%.%.%.%.%.%.%.",
"%.%.%.%.%.%.%.%.%.%.%.%.%.%.%.%..   / / / / ^ / / ^ ^ ^ ^ d X     ] ] ] ] ] ] ] [ ] ] ] ] !   . %.%.%.%.%.%.%.%.%.%.%.%.%.%.%.%.",
"%.%.%.%.%.%.%.%.%.%.%.%.%.%.%.%.%.  N ) / { { { ) / / p F O   a m ^ / / ] ] { ] / / / [ [ x   %.%.%.%.%.%.%.%.%.%.%.%.%.%.%.%.%.",
"%.%.%.%.%.%.%.%.%.%.%.%.%.%.%.%.%.    _ } } } } _ _ W . .   x } } { } / { } { { { { { { {     %.%.      . %.%.%.%.%.%.%.%.%.%.%.",
"%.%.%.%.%.%.%.%.%.%.%.%.%.%.%.%.%.%.  X | |  . ... . . .R ) { } } } } } { } } } ) { {  .o   %.%.%.        %.%.%.%.%.%.%.%.%.%.%.",
"%.%.%.%.%.%.%.%.%.%.%.%.%.%.%.%.%.%.%.. & | .... ... . .....| | | } } | | | } }  . . .& . %.%.%.%.        %.%.%.%.%.%.%.%.%.%.%.",
"%.%.%.%.%.%.%.%.%.%.%.%.%.%.%.%.%.%.%.%.  % ........O. ...........| | | | ....| ....@   %.%.%.%.%.        %.%.%.%.%.%.%.%.%.%.%.",
"%.%.%.%.%.%.%.%.%.%.%.%.%.%.%.%.%.%.%.%.%.     .o...O.O...X.X.X...X.X.| | ......{     %.%.%.%.%.%.    %.    %.%.%.%.%.%.%.%.%.%.",
"%.%.%.%.%.%.%.%.%.%.%.%.%.%.%.%.%.%.%.%.%.%.. . : @.O.o.X.X.X.X.X.O.X.X...X.X.-     %.%.%.%.%.%.%.%.%.%.  . %.%.%.%.%.%.%.%.%.%.",
"%.%.%.%.%.%.%.%.%.%.%.%.%.%.%.%.%.%.%.%.%.%.%.. . . @ J o.@.X.O.O.X.X.X.T @       %.%.%.%.%.%.%.%.%.%.%.    %.%.%.%.%.%.%.%.%.%.",
"%.%.%.%.%.%.%.%.%.%.%.%.%.%.%.%.%.%.%.%.%.%.%.%.%.  .                       %.%.%.%.%.%.  %.%.%.%.%.%.    %.%.%.%.%.%.%.%.%.%.%.",
"%.%.%.%.%.%.%.%.%.%.%.%.%.%.%.%.%.%.%.%.%.%.%.%.    D P k < % X X $ < k <   %.%.                        %.%.%.%.%.%.%.%.%.%.%.%.",
"%.%.%.%.%.%.%.%.%.%.%.%.%.%.%.%.%.%.%.%.%.%.      O Y Y Y L U L s K I L L         . %.%.%.%.%.%.. %.%.%.%.%.%.%.%.%.%.%.%.%.%.%.",
"%.%.%.%.%.%.%.%.%.%.%.%.%.%.%.%.%.%.%.%.%.  . <   m ! W ! ! W -   D ! ! Y O     %.%.%.%.%.%.%.%.%.%.%.%.%.%.%.%.%.%.%.%.%.%.%.%.",
"%.%.%.%.%.%.%.%.%.%.%.%.%.%.%.%.%.%.%.%.    ! - . ^ ^ ^ ^ ^ T   * ^ ^ ^ ( B     %.%.%.%.%.%.%.%.%.%.%.%.%.%.%.%.%.%.%.%.%.%.%.%.",
"%.%.%.%.%.%.%.%.%.%.%.%.%.%.%.%.%.%.%.%.    h     } } } _ _ #   / Q ; T { /     %.%.%.%.%.%.%.%.%.%.%.%.%.%.%.%.%.%.%.%.%.%.%.%.",
"%.%.%.%.%.%.%.%.%.%.%.%.%.%.%.%.%.%.%.%.%..     & ..| | | | u         B  .| . . %.%.%.%.%.%.%.%.%.%.%.%.%.%.%.%.%.%.%.%.%.%.%.%.",
"%.%.%.%.%.%.%.%.%.%.%.%.%.%.%.%.%.%.%.%.%.%.%.  O X.X...X.X.X.~ z H ....X.R   %.%.%.%.%.%.%.%.%.%.%.%.%.%.%.%.%.%.%.%.%.%.%.%.%.",
"%.%.%.%.%.%.%.%.%.%.%.%.%.%.%.%.%.%.%.%.%.%.%.    o.o.o.o.o.X.o.X.@.o.o.(     %.%.%.%.%.%.%.%.%.%.%.%.%.%.%.%.%.%.%.%.%.%.%.%.%.",
"%.%.%.%.%.%.%.%.%.%.%.%.%.%.%.%.%.%.%.%.%.%.%.    o.o.@.+.+.o.o.o.@.T %     %.%.%.%.%.%.%.%.%.%.%.%.%.%.%.%.%.%.%.%.%.%.%.%.%.%.",
"%.%.%.%.%.%.%.%.%.%.%.%.%.%.%.%.%.%.%.%.%.%.%.%.    % i a p u O           %.%.%.%.%.%.%.%.%.%.%.%.%.%.%.%.%.%.%.%.%.%.%.%.%.%.%.",
"%.%.%.%.%.%.%.%.%.%.%.%.%.%.%.%.%.%.%.%.%.%.%.%.  . . .             4     %.%.%.%.%.%.%.%.%.%.%.%.%.%.%.%.%.%.%.%.%.%.%.%.%.%.%.",
"%.%.%.%.%.%.%.%.%.%.%.%.%.%.%.%.%.%.%.%.%.%.%.%.  + r     %.%.%.  o c     %.%.%.%.%.%.%.%.%.%.%.%.%.%.%.%.%.%.%.%.%.%.%.%.%.%.%.",
"%.%.%.%.%.%.%.%.%.%.%.%.%.%.%.%.%.%.%.%.%.%.%.%.. 2 v     %.%.%.  o S &   %.%.%.%.%.%.%.%.%.%.%.%.%.%.%.%.%.%.%.%.%.%.%.%.%.%.%.",
"%.%.%.%.%.%.%.%.%.%.%.%.%.%.%.%.%.%.%.%.%.%.%.%.  k L     %.%.%.    Y d   %.%.%.%.%.%.%.%.%.%.%.%.%.%.%.%.%.%.%.%.%.%.%.%.%.%.%.",
"%.%.%.%.%.%.%.%.%.%.%.%.%.%.%.%.%.%.%.%.%.%.%.%.  u ^   . %.%.%.    / T   %.%.%.%.%.%.%.%.%.%.%.%.%.%.%.%.%.%.%.%.%.%.%.%.%.%.%.",
"%.%.%.%.%.%.%.%.%.%.%.%.%.%.%.%.%.%.%.%.%.%.%.%.    O     %.%.%.%.  H  .. . %.%.%.%.%.%.%.%.%.%.%.%.%.%.%.%.%.%.%.%.%.%.%.%.%.%.",
"%.%.%.%.%.%.%.%.%.%.%.%.%.%.%.%.%.%.%.%.%.%.%.%.%.  . . %.%.%.%.%.      . %.%.%.%.%.%.%.%.%.%.%.%.%.%.%.%.%.%.%.%.%.%.%.%.%.%.%.",
"%.%.%.%.%.%.%.%.%.%.%.%.%.%.%.%.%.%.%.%.%.%.%.%.%.%.%.%.%.%.%.%.%.%.%.  %.%.%.%.%.%.%.%.%.%.%.%.%.%.%.%.%.%.%.%.%.%.%.%.%.%.%.%.",
"%.%.%.%.%.%.%.%.%.%.%.%.%.%.%.%.%.%.%.%.%.%.%.%.%.%.%.%.%.%.%.%.%.%.%.%.%.%.%.%.%.%.%.%.%.%.%.%.%.%.%.%.%.%.%.%.%.%.%.%.%.%.%.%.",
"%.%.%.%.%.%.%.%.%.%.%.%.%.%.%.%.%.%.%.%.%.%.%.%.%.%.%.%.%.%.%.%.%.%.%.%.%.%.%.%.%.%.%.%.%.%.%.%.%.%.%.%.%.%.%.%.%.%.%.%.%.%.%.%.",
"%.%.%.%.%.%.%.%.%.%.%.%.%.%.%.%.%.%.%.%.%.%.%.%.%.%.%.%.%.%.%.%.%.%.%.%.%.%.%.%.%.%.%.%.%.%.%.%.%.%.%.%.%.%.%.%.%.%.%.%.%.%.%.%.",
"%.%.%.%.%.%.%.%.%.%.%.%.%.%.%.%.%.%.%.%.%.%.%.%.%.%.%.%.%.%.%.%.%.%.%.%.%.%.%.%.%.%.%.%.%.%.%.%.%.%.%.%.%.%.%.%.%.%.%.%.%.%.%.%.",
"%.%.%.%.%.%.%.%.%.%.%.%.%.%.%.%.%.%.%.%.%.%.%.%.%.%.%.%.%.%.%.%.%.%.%.%.%.%.%.%.%.%.%.%.%.%.%.%.%.%.%.%.%.%.%.%.%.%.%.%.%.%.%.%."
};
