/* XPM */
static char *result[] = {
/* columns rows colors chars-per-pixel */
"64 64 30 1 ",
"  c #291C0C",
". c #2A1D0C",
"X c #2B1E0D",
"o c #2C1E0D",
"O c #2E1F0E",
"+ c #2E200E",
"@ c #2F200F",
"# c #30210F",
"$ c #32220F",
"% c #32230F",
"& c #322311",
"* c #332412",
"= c #342410",
"- c #352511",
"; c #362612",
": c #372612",
"> c #362714",
", c #382813",
"< c #392814",
"1 c #3A2A15",
"2 c #3B2A15",
"3 c #3A2A16",
"4 c #3B2B16",
"5 c #3C2B16",
"6 c #3D2C17",
"7 c #3E2D18",
"8 c #2E2B23",
"9 c #293032",
"0 c #47351E",
"q c #6A5234",
/* pixels */
"qqqqqqqqqqqqqqqqqqqqqqqqqqqqqqqqqqqqqqqqqqqqqqqqqqqqqqqqqqqqqqqq",
"0000000000000000000000000000000000000000000000000000000000000000",
"0000000000000000000000000000000000000000000000000000000000000000",
"0000000000000000000000000000000000000000000000000000000000000000",
"7777777777777777777777777777777777777777777777777777777777777777",
"7777777777777777777777777777777777777777777777777777777777777777",
"                                                                ",
"====O                      O==%  %==O                      O====",
"====O                  $==+O==%  %==O+==$                  O====",
"====O             o===.$==+O==%  %==O+==$.===o             O====",
"77;2&         #==#o===.$==+O==%  %==O+==$.===o#==#         &2;77",
"77;2&    .===o#==#o===.$==+O==%  %==O+==$.===o#==#o===.    &2;77",
"77;2&    .===o#==#o===.$==+O==%  %==O+==$.===o#==#o===.    &2;77",
"7777&+==$.===o#==#o===.$==+&774  477&+==$.===o#==#o===.$==+&7777",
"7777&+==$.===o#==#o===.377<,774  477,<773.===o#==#o===.$==+&7777",
"7777&+==$.===o#==#@777-577<,774  477,<775-777@#==#o===.$==+&7777",
"7777&+==$.===o>771:777-577<,774  477,<775-777:177>o===.$==+&7777",
"7777&+==$X777:1771:777-577<,774  477,<775-777:1771:777X$==+&7777",
"7777&*773X777:1771:777-577<,774  477,<775-777:1771:777X377*&7777",
"7777&*775-777:1771:777-577<,774  477,<775-777:1771:777-577*&7777",
"7777&*775-777:1771:777-577<,774  477,<775-777:1771:777-577*&7777",
"7777&*775-777@#8999999999999999999999999999999998#@777-577*&7777",
"7777&*775-777@#8999999999999999999999999999999998#@777-577*&7777",
"7777&*775-777@#8999999999999999999999999999999998#@777-577*&7777",
"7777&*775-777@#+                                +#@777-577*&7777",
"7777&*775-777@#==#o===.$==+O==%  %==O+==$.===o#==#@777-577*&7777",
"7777&*775-777@#==#o===.$==+O==%  %==O+==$.===o#==#@777-577*&7777",
"7777&*775-777@>77>@777X377*&774  477&*773X777@>77>@777-577*&7777",
"7777&*775-777@>771:777-577<,776==677,<775-777:177>@777-577*&7777",
"7777&*775-777:1771:777-577<,776==677,<775-777:1771:777-577*&7777",
"7777&*775-777:1771:777-577<,776==677,<775-777:1771:777-577*&7777",
"7777&*775-777:1771:777-577<,776==677,<775-777:1771:777-577*&7777",
"7777&*775-777:1771:777-577<,774  477,<775-777:177>@777-577*&7777",
"7777&+===-777:1771:777-577<,774  477,<775-777:1771:777-577*&7777",
"7777&*775-777:1771:777-577<,774  477,<775-777:1771:777-577*&7777",
"7777&*775-777:1771:777-577<,774  477,<775-777:1771:777-577*&7777",
"7777&*775-777:1771:777-577<,774  477,<775-777:1771:777-577*&7777",
"7777&*775-777@#8999999999999999999999999999999998#@777-577*&7777",
"7777&*775-777@#8999999999999999999999999999999998#@777-577*&7777",
"7777&*775-777@#8999999999999999999999999999999998#@777-577*&7777",
"7777&*775-777@#+                                +#@777-577*&7777",
"7777&*775-777@#==#o===.$==+O==%  %==O+==$.===o#==#@777-577*&7777",
"7777&*775-777@#==#o===.$==+O==%  %==O+==$.===o#==#@777-577*&7777",
"7777&*775-777@>77>@777X377*&774  477&*773X777@>77>@777-577*&7777",
"7777&*775-777@>771:777-577<,776==677,<775-777:177>@777-577*&7777",
"7777&*775-777:1771:777-577<,776==677,<775-777:1771:777-577*&7777",
"7777&*775-777:1771:777-577<,776==677,<775-777:1771:777-577*&7777",
"77;2&*775-777:1771:777-577<,776==677,<775-777:1771:777-577*&2;77",
"77;2&*775-777:1771:777-577<,776==677,<775-777:1771:777-577*&2;77",
"77;2&*775-777:1771:777-577<,776==677,<775-777:1771:777-577*&2;77",
"===2&*775-777:1771:777-577<,776==677,<775-777:1771:777-577*&2===",
"77;2&*775-777:1771:777-577<,776==677,<775-777:1771:777-577*&2;77",
"77;2&*775-777:1771:777-577<,776==677,<775-777:1771:777-577*&2;77",
"77;2&*775-777@#8999999999999999999999999999999998#@777-577*&2;77",
"7777&*775-777@#8999999999999999999999999999999998#@777-577*&7777",
"7777&*775-777@#8999999999999999999999999999999998#@777-577*&7777",
"7777&*775-777@#+                                +#@777-577*&7777",
"7777&*775-777@#==#o===.$==+O==%  %==O+==$.===o#==#@777-577*&7777",
"7777&*775-777@#==#o===.$==+O==%  %==O+==$.===o#==#@777-577*&7777",
"7777&*775-777@>77>@777-577*&774  477&*775-777@>77>@777-577*&7777",
"7777&*775-777@>77>@777-577<,774  477,<775-777@>77>@777-577*&7777",
"7777&*775-777@>77>@777-577<,774  477,<775-777@>77>@777-577*&7777",
"====O+==$.===o#==#@777-577<,776==677,<775-777@#==#o===.$==+O====",
"====O+==$.===o#==================================#o===.$==+O===="
};
