/* XPM */
static char *result[] = {
/* columns rows colors chars-per-pixel */
"64 64 58 1 ",
"  c #4F2707",
". c #502707",
"X c #502807",
"o c #512807",
"O c #512808",
"+ c #522808",
"@ c #522908",
"# c #532908",
"$ c #542908",
"% c #552908",
"& c #542A08",
"* c #552A08",
"= c #552A09",
"- c #562A08",
"; c #562B08",
": c #562A09",
"> c #572A09",
", c #562B09",
"< c #572B09",
"1 c #582B09",
"2 c #592B09",
"3 c #582C09",
"4 c #592C09",
"5 c #592D09",
"6 c #5A2C09",
"7 c #5A2D09",
"8 c #592D0A",
"9 c #5A2D0A",
"0 c #5B2D0A",
"q c #5B2E0A",
"w c #5C2D0A",
"e c #5C2E0A",
"r c #5D2E0A",
"t c #5D2F0A",
"y c #5D2F0B",
"u c #5E2E0A",
"i c #5E2F0A",
"p c #5F2F0A",
"a c #5E2F0B",
"s c #5F2F0B",
"d c #5F300A",
"f c #5E300B",
"g c #5F300B",
"h c #60300B",
"j c #61300B",
"k c #61310B",
"l c #62310B",
"z c #63320B",
"x c #64320B",
"c c #64330B",
"v c #62310C",
"b c #63310C",
"n c #63320C",
"m c #64320C",
"M c #65330C",
"N c #66330C",
"B c #66340C",
"V c #67340C",
/* pixels */
"                                                                ",
"                                                                ",
"         #*&.      X<3*       O**O       *3<X      .&*#         ",
"        o9gy#.    X*cVd+     X,gg,X     +dVc*X    .#yg9o        ",
"       oqfggy&    <cVVNk+    3agga3    +kNVVc<    &yggfqo       ",
"       otgggg3@  @0VVVVM<o .$qggggq$. o<MVVVV0@  @3ggggto       ",
"      X$ygggg3@ +:uVVVVM<oX#<eggggq$.o$6MVVVV0@ +:0ggggto       ",
"    O+$4ygggy&.@11rMVVNk+o*41efgga3 o:26zBVVc<X#129aggfqoXoo    ",
"   Oski14rgy#.&ya920MVd+ 9lj420gg,Xoqae16lVc*X,kvw16ag9o 3tqo   ",
"  &rbmvs4604X=qggy02r7*o9jmnh0400##9fgae200<X<smmjr190,X3tgf9#  ",
" o4mmmmv411<#9gggge1*o +kmmmme111$<gggga4:@  emmmms111:$ygggg<o ",
" %emmmmv11111egggge:.  +kmmmmw<1110gggga1+   emmmms<1114agggg0% ",
" %emmmmk#*111egggg8.   +kmmmm1#1110ggggy@    emmmmro<114agggg0% ",
" %6rbms,X7kh46egg4#X35=X,smv3@;kk040fgq&.=53X&emme&opki19ygf04% ",
" @:4sr<X<kVNp66e8#O,agq&.4sro*iVVj02e9=.&qga,O*ss*@7MVzr20ee2:@ ",
"  +>>+ #xVVVVu1<o.,ggggy@*1<oiVVVVk11#.@ygggg,#11#4VVVVM6111<+  ",
"   .. +4MVVVVu11<>9gggga1111<jVVVVk11<>1agggg9<11<rVVVVM611<o   ",
"     @:6MVVVVu11110ggggy$:111kVVVVk11114agggg<$111uVVVVM61:+    ",
"   X,904hMVBl06ee66rggt3X<ew2izVVzi2we02eagf9#$ee60lBVMh409,X   ",
"  X&lmh41hMz64rmmr44ya3 Ormb02rMMr20bmh41eaeoo3mmr46zMh14hml&X  ",
"  ,lmmnj44661sbmmbs144*Osbmmbw2662wbmmnj4241X9vmmbs16644jnmml,  ",
" @9mmmmv41111smmmmr#<1><vmmmme1111emmmml*:11*ammmms11114vmmmm<  ",
" %emmmmv<>111smmmme.$>14vmmmm9:111emmmmk+@:11smmmma*1114vmmmm<  ",
" %wbmmbsO*441sbmmv9 +<44jnmml,#441wbmmbsOo*61sbmmv9X1424jnmml,  ",
" %20bmrO 3ay44rmm3o+kMh14hml&X*aa920bmrO ecz64rmm3ooeae14hml&X  ",
" o$2w4&X3tggr66w1@*dNVMh409,X=qggy02w4&oexVBl06w1@#9fgae209,X   ",
"  o%%oX$ygggg0>$.o7VVVVM6:@ +9gggge1*oX*cVVVVu>$.o<gggga4:@     ",
"     .#4agggg9$ .*uVVVVM4+ o<egggge:..#6MVVVVr$ .*0gggga1+ .    ",
"     $<4agggg,..:1uVVVVx# +<1egggg8. $<6MVVVV4..:10ggggy@ +:.   ",
"   o9ar19yga,O#8e66pNVk<X<rs46egg4#X3q02rzVM7@&rs040fgq&.=90o   ",
"  @3vmjw20e0o#4gge64hd3X,smbr66ee&O,agy91iheo&emms02ee<.&qga,O  ",
" .1mmmmv411<o8gggge1<+ +kmmmme111#,gggga4<$  emmmms111*@ygggg,. ",
" $wmmmmv4111<egggge<o  +kmmmme111<9gggga4#.  emmmms11111agggg9$ ",
" %emmmml*:111egggg9+   +kmmmm4$1110ggggy$X   emmmmr#<114agggg0% ",
" %0hnmj9o3ur20yggq=.&*#o9jmbr&&uu66rggt3X#*&.<smms<owu02eaggr6% ",
" $<4jl9 +dVM029ay&.#yg9o 0vhOo7VVp44yy3 o9gy#.,vv,X*cVl61eay4<$ ",
" .#14*o+kNVVMr11@.&yggfqo-41XeMVVNh14$Xoqfggy&#44#<cVVBz62441#. ",
"  X++Xo<MVVVVu11*%3gggga:>11*hVVVVk11:%:agggg3:11:0VVVVM611<#X  ",
"     o$6MVVVVu11110gggga:>111kVVVVk11114agggg3:111uVVVVM61>$.   ",
"    O<46zBVVMr24429aggfqo-441hNVVNh14444ygggy&#442rMVVBz64<O    ",
"   Osvs16lVM02wvvw16ag9o 0vj44pVVp44jvs14rgy#.,vvw20MVl61svsO   ",
"  &rbmvs40ur2rjmmjr190,o9jmnh06uu60hnmvs4604X<smmjr2ru04svmbr&  ",
" o4mmmmv41111smmmma*11:*lmmmme1111emmmmv<>1<#rmmmms11114vmmmm<  ",
" %emmmmv11111smmmme.:114vmmmmw<111emmmmk+$<11smmmms<1114vmmmm<  ",
" %emmmmk#*111smmmme .*14vmmmm1#111emmmmk+.#11smmmmro<114vmmmm<  ",
" %6rbms,X<ee20smme&oehi2wjmv3@&ee66rbms,X3dh40smme&o0e02wjmv3@  ",
" @:4sr<.&qgf040sr&@7MVzr2ra9o#4gge64sr<X<kVNp60sr&O,agy91ra9o   ",
"  +>>+ @ygggg01:..4VVVVM6<$ .8gggge1<+ #xVVVVu1:..,gggga4<$     ",
"   .. +1agggg0*. $rVVVVM6#..:egggge<o +4MVVVVu*. $9gggga4#.     ",
"     @:4agggg<o.$>uVVVVc*Xo*1egggg9+ @:6MVVVV7o.$>0ggggy$Xo$.   ",
"   X,902eagf9#O,940lBVxeo&4w20yggq=.&364hMVNd*@1w66rggt3X#<4X   ",
"  X&lmh41eaeoX,gg026zce Ormb029aa*.#ygr41hMk+o3mmr44ya3 o9gy#.  ",
"  ,lmmnj4241X3aggfe16*oOsbmmbw144#&ygggy44<+ 9vmmbs144*oqfggy&  ",
" @9mmmmv4111*qgggge<#X +kmmmme111:3gggga4$o  emmmms111>:agggg3@ ",
" %emmmmv<>111eggggq$.  +kmmmm9:1110gggga:o   emmmma*1114agggg0% ",
" %wbmmbsO-661efgga3 ooXOsbmml,#6629aggfqoXoo 9vmmv9X1644yggga9% ",
" %20bmrO rMz620gg,Xoqt3 Orml&X<MMr16ag9o 3tqoo3mm3o+lMh14rga61% ",
" o$2w4&oexVBl049,O#9fgt3X<e0o3kVVzi19<#X3tgf9#$ee$*dNVMh46091$o ",
"  o%%oX*cVVVVu1<#+<ggggy$:1<#dVVVVk11$+$ygggg<$11$7VVVVM61>%%o  ",
"      +4MVVVVr><110gggga1><11kVVVVj>>114agggg9><11uVVVVM4>$     ",
"       #xVVVV4.o<10ggggy@.#11kVVVVi..*14agggg,.o<1uVVVVx#..     ",
"       X<kVM7@  +:40fgq&. X#<0jVVi*  o$19yga,O  +:6pNVk<X       ",
"         3ieo    @%*35=    .$%3ii*    o%%<53X    @%-ri3         ",
"                                                                "
};
