/* XPM */
static char *result[] = {
/* columns rows colors chars-per-pixel */
"64 64 167 2 ",
"   c #291C0C",
".  c #2A1D0C",
"X  c #2A1D0D",
"o  c #2B1D0D",
"O  c #2B1E0D",
"+  c #2C1E0D",
"@  c #2D1F0D",
"#  c #2C1E0E",
"$  c #2C1F0E",
"%  c #2D1F0E",
"&  c #2D200F",
"*  c #2E200E",
"=  c #2F200E",
"-  c #2F210E",
";  c #2E200F",
":  c #2F200F",
">  c #2F210F",
",  c #33230F",
"<  c #312210",
"1  c #312311",
"2  c #322310",
"3  c #332310",
"4  c #332410",
"5  c #332512",
"6  c #342410",
"7  c #352410",
"8  c #352510",
"9  c #352511",
"0  c #362511",
"q  c #362611",
"w  c #342512",
"e  c #342513",
"r  c #352612",
"t  c #362612",
"y  c #372612",
"u  c #372712",
"i  c #362614",
"p  c #382712",
"a  c #382713",
"s  c #372815",
"d  c #382813",
"f  c #392814",
"g  c #392914",
"h  c #392915",
"j  c #3A2914",
"k  c #3A2A15",
"l  c #3B2A15",
"z  c #392916",
"x  c #3A2A16",
"c  c #3B2B17",
"v  c #3C2B15",
"b  c #3C2B16",
"n  c #3D2C16",
"m  c #3C2C17",
"M  c #3D2C17",
"N  c #3D2D17",
"B  c #3F2E17",
"V  c #3E2D18",
"C  c #3F2D18",
"Z  c #3F2E18",
"A  c #3F2E19",
"S  c #402F19",
"D  c #412F19",
"F  c #402F1A",
"G  c #413019",
"H  c #41301A",
"J  c #42301A",
"K  c #42311A",
"L  c #42311B",
"P  c #43311B",
"I  c #43321B",
"U  c #44321B",
"Y  c #46341B",
"T  c #43321C",
"R  c #44321C",
"E  c #44331C",
"W  c #45331C",
"Q  c #45331D",
"!  c #47351C",
"~  c #46341D",
"^  c #47351D",
"/  c #47351E",
"(  c #49361D",
")  c #48361E",
"_  c #49361E",
"`  c #48361F",
"'  c #49361F",
"]  c #49371F",
"[  c #4A371E",
"{  c #4A371F",
"}  c #4B381F",
"|  c #4C381F",
" . c #4C391F",
".. c #4E3A1F",
"X. c #4B3820",
"o. c #4C3920",
"O. c #4D3920",
"+. c #4C3921",
"@. c #4D3A20",
"#. c #4D3A21",
"$. c #4E3A21",
"%. c #4E3B21",
"&. c #4F3B21",
"*. c #4F3C21",
"=. c #503C21",
"-. c #503C22",
";. c #503D22",
":. c #513D22",
">. c #543F23",
",. c #523E24",
"<. c #533F24",
"1. c #554025",
"2. c #564125",
"3. c #574225",
"4. c #564126",
"5. c #574226",
"6. c #594225",
"7. c #584226",
"8. c #584326",
"9. c #594326",
"0. c #5A4427",
"q. c #5B4527",
"w. c #594428",
"e. c #5C4528",
"r. c #5C4628",
"t. c #5C4629",
"y. c #5E4628",
"u. c #5F4729",
"i. c #5D472A",
"p. c #5F482B",
"a. c #624A2B",
"s. c #60492C",
"d. c #604A2C",
"f. c #614A2C",
"g. c #634A2C",
"h. c #634B2C",
"j. c #634B2D",
"k. c #674F31",
"l. c #695031",
"z. c #695133",
"x. c #6A5132",
"c. c #6B5233",
"v. c #6C5230",
"b. c #6D5433",
"n. c #6B5334",
"m. c #6C5334",
"M. c #6D5334",
"N. c #6D5435",
"B. c #6E5435",
"V. c #715633",
"C. c #725735",
"Z. c #715736",
"A. c #725736",
"S. c #735835",
"D. c #745935",
"F. c #755935",
"G. c #745936",
"H. c #755A36",
"J. c #765A36",
"K. c #775B36",
"L. c #765A37",
"P. c #785C37",
"I. c #795D38",
"U. c #7A5D38",
"Y. c #7B5E39",
"T. c #7C5F39",
"R. c None",
/* pixels */
"                                                                                                                                ",
"                                                                                                                                ",
"  O @ @ . o @ @ @ @ @ @ @ @ @ @ @ @ @ @ @ @ @ @ @ @ @ @ @ @ @ @ @ @ @ @ @ @ @ @ @ @ @ @ @ @ @ @ @ @ @ @ @ @ @ @ @ @ o . @ @ O   ",
"  - 6 6 + * 6 6 6 6 6 6 6 6 6 6 6 6 6 6 6 6 6 6 6 6 6 6 6 6 6 6 6 6 6 6 6 6 6 6 6 6 6 6 6 6 6 6 6 6 6 6 6 6 6 6 6 6 * + 6 6 -   ",
"  - 6 6 + * 6 6 6 6 6 6 6 6 6 6 6 6 6 6 6 6 6 6 6 6 6 6 6 6 6 6 6 6 6 6 6 6 6 6 6 6 6 6 6 6 6 6 6 6 6 6 6 6 6 6 6 6 * + 6 6 -   ",
"  O @ @ . o @ @ @ @ @ @ @ @ @ @ @ @ @ @ @ @ @ @ @ @ @ @ @ @ @ @ @ @ @ @ @ @ @ @ @ @ @ @ @ @ @ @ @ @ @ @ @ @ @ @ @ @ o . @ @ O   ",
"  O @ @ .                                                                                                             . @ @ O   ",
"  - 6 6 +   . $ % # X $ % % % % % % % % % % % % $ o + $ X . . . . # % % % % % % % % % % % % % % % % % % $ X # % $ .   + 6 6 -   ",
"  - 6 6 +   ; F T V 4 A T T T T T T T T T T T T H r b Z 3 , , , , m T T T T T T T T T T T T T T T T T T A 4 V T F ;   + 6 6 -   ",
"  - 6 6 +   ; R / D 9 L / / / / / / / / / / / / W u V J 6 6 6 6 6 Z / / / / / / / / / / / / / / / / / / L 9 D / R ;   + 6 6 -   ",
"  - 6 6 +   % N S b 7 M S S S S S S S S S S S S C q k n 6 6 6 6 6 l S S S S S S S S S S S S S S S S S S M 7 b S N %   + 6 6 -   ",
"  - 6 6 +   O 9 t 0 6 y p p p p u t u u t t t t y u p p p p p p p p p p p p p p p p p y u u t u p p p p y 6 0 t 9 O   + 6 6 -   ",
"  - 6 6 +   ; J W Z 9 ! @.@.@.@.[ Q | _ W W W W ~  .@.@.@.@.@.@.@.@.@.@.@.@.@.@.@.@.@.^ _ | Q [ @.@.@.@.! 9 Z W J ;   + 6 6 -   ",
"  - 6 6 +   ; R / D 9 [ :.:.:.:.#.) &.o./ / / / ) *.:.:.:.:.:.:.:.:.:.:.:.:.:.:.:.:.;.] o.&.) #.:.:.:.:.[ 9 D / R ;   + 6 6 -   ",
"  - 6 6 +   ; R / D 9 ^ @.@.@.@.X./ o.{ / / / / ) o.@.@.@.@.&.:.:.:.-.@.@.@.@.@.@.@.@.` { o./ X.@.@.@.@.^ 9 D / R ;   + 6 6 -   ",
"  - 6 6 +   ; R / D 9 I ) ) / ) ) ) ) ) ) ) ) ) ) ) ) ) ) ) o.:.:.:.%.) ) ) ) ) ) ) ) ) ) ) ) ) ) / ) ) I 9 D / R ;   + 6 6 -   ",
"  - 6 6 +   ; R / D 9 ( =.%.) O.=.=.=.=.=.=.=.=.=.=.=.=.=.=.-.:.:.:.:.=.=.=.=.=.=.=.=.=.=.=.=.=.O.) %.=.( 9 D / R ;   + 6 6 -   ",
"  - 6 6 +   ; R / D 9 [ :.&.) #.:.:.:.:.:.:.:.:.:.:.:.:.:.:.:.:.:.:.:.:.:.:.:.:.:.:.:.:.:.:.:.:.#.) &.:.[ 9 D / R ;   + 6 6 -   ",
"  - 6 6 +   ; R / D 9 [ :.&.) #.:.:.:.:.:.:.:.:.:.:.:.:.:.:.:.:.:.:.:.:.:.:.:.:.:.:.:.:.:.:.:.:.#.) &.:.[ 9 D / R ;   + 6 6 -   ",
"  - 6 6 +   ; R / D 9 [ :.&.) #.:.:.:.:.:.:.:.:.:.:.:.:.:.:.:.:.:.:.:.:.:.:.:.:.:.:.:.:.:.:.:.:.#.) &.:.[ 9 D / R ;   + 6 6 -   ",
"  - 6 6 +   ; R / D 9 [ :.&.) #.:.:.:.:.:.:.:.:.:.:.:.:.:.:.:.:.:.:.:.:.:.:.:.:.:.:.:.:.:.:.:.:.#.) &.:.[ 9 D / R ;   + 6 6 -   ",
"  - 6 6 +   ; R / D 9 [ :.&.) #.:.:.:.:.:.R.R.R.R.R.R.R.R.R.R.R.R.R.R.R.R.R.R.R.R.R.R.:.:.:.:.:.#.) &.:.[ 9 D / R ;   + 6 6 -   ",
"  - 6 6 +   ; R / D 9 [ :.&.) #.:.:.:.:.:.R.R.R.R.R.R.R.R.R.R.R.R.R.R.R.R.R.R.R.R.R.R.:.:.:.:.:.#.) &.:.[ 9 D / R ;   + 6 6 -   ",
"  - 6 6 +   ; R / D 9 [ :.&.) #.:.:.:.:.:.R.R.R.R.R.R.R.R.R.R.R.R.R.R.R.R.R.R.R.R.R.R.:.:.:.:.:.#.) &.:.[ 9 D / R ;   + 6 6 -   ",
"  - 6 6 +   ; R / D 9 [ :.&.) #.:.:.:.:.:.R.R.R.R.R.R.R.R.R.R.R.R.R.R.R.R.R.R.R.R.R.R.:.:.:.:.:.#.) &.:.[ 9 D / R ;   + 6 6 -   ",
"  - 6 6 +   ; R / D 9 [ :.&.) #.:.:.:.:.:.R.R.R.R.R.R.R.R.R.R.R.R.R.R.R.R.R.R.R.R.R.R.:.:.:.:.:.#.) &.:.[ 9 D / R ;   + 6 6 -   ",
"  - 6 6 +   ; R / D 9 [ :.&.) #.:.:.:.:.:.R.R.R.R.R.R.R.R.R.R.R.R.R.R.R.R.R.R.R.R.R.R.:.:.:.:.:.#.) &.:.[ 9 D / R ;   + 6 6 -   ",
"  - 6 6 +   ; R / D 9 [ :.&.) #.:.:.:.:.:.R.R.R.R.R.R.R.R.R.R.R.R.R.R.R.R.R.R.R.R.R.R.:.:.:.:.:.#.) &.:.[ 9 D / R ;   + 6 6 -   ",
"  - 6 6 +   ; R / D 9 [ :.&.) #.:.:.:.:.:.R.R.R.R.R.R.R.R.R.R.R.R.R.R.R.R.R.R.R.R.R.R.:.:.:.:.:.#.) &.:.[ 9 D / R ;   + 6 6 -   ",
"  - 6 6 +   ; R / D 9 [ :.-.$.=.:.:.:.:.:.R.R.R.R.R.R.R.R.R.R.R.R.R.R.R.R.R.R.R.R.R.R.:.:.:.:.:.=.$.-.:.[ 9 D / R ;   + 6 6 -   ",
"  - 6 6 +   % N S b 9 [ :.:.:.:.:.:.:.:.:.R.R.R.R.R.R.R.R.R.R.R.R.R.R.R.R.R.R.R.R.R.R.:.:.:.:.:.:.:.:.:.[ 9 b S N %   + 6 6 -   ",
"  - 6 6 +   o 3 6 6 9 [ :.:.:.:.:.:.:.:.:.R.R.R.R.R.R.R.R.R.R.R.R.R.R.R.R.R.R.R.R.R.R.:.:.:.:.:.:.:.:.:.[ 9 6 6 3 o   + 6 6 -   ",
"  - 6 6 +   o 3 6 6 9 [ :.:.:.:.:.:.:.:.:.R.R.R.R.R.R.R.R.R.R.R.R.R.R.R.R.R.R.R.R.R.R.:.:.:.:.:.:.:.:.:.[ 9 6 6 3 o   + 6 6 -   ",
"  - 6 6 +   o 3 6 6 9 [ :.=.X.&.:.:.:.:.:.R.R.R.R.R.R.R.R.R.R.R.R.R.R.R.R.R.R.R.R.R.R.:.:.:.:.:.&.X.=.:.[ 9 6 6 3 o   + 6 6 -   ",
"  - 6 6 +   o 3 6 6 9 [ :.&.) #.:.:.:.:.:.R.R.R.R.R.R.R.R.R.R.R.R.R.R.R.R.R.R.R.R.R.R.:.:.:.:.:.#.) &.:.[ 9 6 6 3 o   + 6 6 -   ",
"  - 6 6 +   O 9 t 0 9 [ :.&.) #.:.:.:.:.:.R.R.R.R.R.R.R.R.R.R.R.R.R.R.R.R.R.R.R.R.R.R.:.:.:.:.:.#.) &.:.[ 9 0 t 9 O   + 6 6 -   ",
"  - 6 6 +   ; J W Z 9 [ :.&.) #.:.:.:.:.:.R.R.R.R.R.R.R.R.R.R.R.R.R.R.R.R.R.R.R.R.R.R.:.:.:.:.:.#.) &.:.[ 9 Z W J ;   + 6 6 -   ",
"  - 6 6 +   # g l f 9 [ :.&.) #.:.:.:.:.:.R.R.R.R.R.R.R.R.R.R.R.R.R.R.R.R.R.R.R.R.R.R.:.:.:.:.:.#.) &.:.[ 9 f l g #   + 6 6 -   ",
"  - 6 6 +   # g l f 9 ^ @.o./ #.:.:.:.:.:.R.R.R.R.R.R.R.R.R.R.R.R.R.R.R.R.R.R.R.R.R.R.<.:.:.:.:.#./ o.@.^ 9 f l g #   + 6 6 -   ",
"  - 6 6 +   ; R / D 9 L / / / #.:.:.:.:.:.:.6.y.u.u.e.R.N.B.B.x.1.f.m.m.m.x.R.n.m.m.c.5.:.:.:.:.#./ / / L 9 D / R ;   + 6 6 -   ",
"  - 6 6 +   ; R / D 9 L / / / #.:.:.:.:.:.:.6.a.x.x.i.t.I.U.U.D.3.f.m.m.m.d.4.z.m.m.c.5.:.:.:.:.#./ / / L 9 D / R ;   + 6 6 -   ",
"  - 6 6 +   ; R / D 9 L / / / #.:.:.:.:.:.:.6.u.g.g.9.0.Z.A.A.b.2.f.m.m.m.s.5.C.L.L.G.0.:.:.:.:.#./ / / L 9 D / R ;   + 6 6 -   ",
"  - 6 6 +   % N S b 9 W } { / #.:.:.:.:.:.:.6.u.g.g.9.0.Z.A.A.b.2.f.m.m.m.s.5.C.L.L.G.0.:.:.:.:.#./ { } W 9 b S N %   + 6 6 -   ",
"  - 6 6 +   o 3 6 6 9 [ :.&.) #.:.:.:.:.:.:.6.g.m.m.i.r.Y.T.T.J.3.f.m.m.m.s.2.c.B.B.M.7.:.:.:.:.#.) &.:.[ 9 6 6 3 o   + 6 6 -   ",
"  - 6 6 +   o 3 6 6 9 [ :.&.) #.:.:.:.:.:.:.6.g.m.m.i.r.Y.T.T.J.3.f.m.m.m.s.8.H.U.U.P.q.:.:.:.:.#.) &.:.[ 9 6 6 3 o   + 6 6 -   ",
"  - 6 6 +   o 3 6 6 9 [ :.&.) #.:.:.:.:.:.:.p.l.m.m.i.r.Y.T.T.J.3.f.m.m.m.s.8.K.T.T.U.q.:.:.:.:.#.) &.:.[ 9 6 6 3 o   + 6 6 -   ",
"  - 6 6 +   o 3 6 6 9 [ :.&.) X.@.@.@.@.| Y s.m.m.m.i.r.Y.T.T.D...p.A.A.A.j.8.K.T.T.U.8.@.@.@.@.X.) &.:.[ 9 6 6 3 o   + 6 6 -   ",
"  - 6 6 +   o 3 6 6 9 ( =.%.) / / / / / L 9 4.k.k.k.w.7.F.H.H.v.v 9.H.H.H.h.>.V.H.H.S.,./ / / / / ) %.=.( 9 6 6 3 o   + 6 6 -   ",
"  - 6 6 +   o 3 6 6 9 I ) ) / / / / / / L 9 U +.+.+.D n #.$.$._ > A $.$.$.U l X.$.$.#.' / / / / / / ) ) I 9 6 6 3 o   + 6 6 -   ",
"  - 6 6 +   o 3 6 6 9 ^ @.o./ / / / / / H * A / / / h w / / / P & x / / / c 2 E / / / / / / / / / / o.@.^ 9 6 6 3 o   + 6 6 -   ",
"  - 6 6 +   o 3 6 6 8 B K G m m m m m m s X i m m m 1 ; c m m z # w m m m 5 $ x m m m m m m m m m m G K B 8 6 6 3 o   + 6 6 -   ",
"  - 6 6 +   o 3 6 6 6 @ . . . . . . . . . . . . . . . . . . . . . . . . . . . . . . . . . . . . . . . . @ 6 6 6 3 o   + 6 6 -   ",
"  - 6 6 +   o 3 6 6 6 3 , , , , , , , , , , , , , , , , , , , , , , , , , , , , , , , , , , , , , , , , 3 6 6 6 3 o   + 6 6 -   ",
"  - 6 6 +   o 3 6 a Z y j S S S S S S S S S S S S S S S S S S S S S S S S S S S S S S S S S S S S S S j y Z a 6 3 o   + 6 6 -   ",
"  - 6 6 +   o 3 6 k ~ d M / / / / / / / / / / / / / / / / / / / / / / / / / / / / / / / / / / / / / / M d ~ k 6 3 o   + 6 6 -   ",
"  - 6 6 +   o 3 6 k ~ d M / / / / / / / / / / / / / / / / / / / / / / / / / / / / / / / / / / / / / / M d ~ k 6 3 o   + 6 6 -   ",
"  - 6 6 +   o 3 6 k ~ d M / / / / / / / / / / / / / / / / / / / / / / / / / / / / / / / / / / / / / / M d ~ k 6 3 o   + 6 6 -   ",
"  - 6 6 +   . @ @ > w : < e e e e e e e e e e e e e e e e e e e e e e e e e e e e e e e e e e e e e e < : w > @ @ .   + 6 6 -   ",
"  - 6 6 = @ @ @ @ @ @ @ @ @ @ @ @ @ @ @ @ @ @ @ @ @ o . @ @ @ @ @ @ @ @ @ O . @ @ @ @ @ @ @ @ @ @ @ @ @ @ @ @ @ @ @ @ = 6 6 -   ",
"  - 6 6 6 6 6 6 6 6 6 6 6 6 6 6 6 6 6 6 6 6 6 6 6 6 * + 6 6 6 6 6 6 6 6 6 = o 3 6 6 6 6 6 6 6 6 6 6 6 6 6 6 6 6 6 6 6 6 6 6 -   ",
"  - 6 6 6 6 6 6 6 6 6 6 6 6 6 6 6 6 6 6 6 6 6 6 6 6 * + 6 6 6 6 6 6 6 6 6 = o 3 6 6 6 6 6 6 6 6 6 6 6 6 6 6 6 6 6 6 6 6 6 6 -   ",
"  O @ @ @ @ @ @ @ @ @ @ @ @ @ @ @ @ @ @ @ @ @ @ @ @ o . @ @ @ @ @ @ @ @ @ O . @ @ @ @ @ @ @ @ @ @ @ @ @ @ @ @ @ @ @ @ @ @ @ O   ",
"                                                                                                                                ",
"                                                                                                                                "
};
